<svg width="32" height="32" viewBox="0 0 32 32" fill="none" xmlns="http://www.w3.org/2000/svg">
<path fill-rule="evenodd" clip-rule="evenodd" d="M12 22.6667C12 17.512 16.1787 13.3333 21.3334 13.3333C26.488 13.3333 30.6667 17.512 30.6667 22.6667V25.7778C30.6667 27.7415 29.0748 29.3333 27.1112 29.3333H13.3334C12.597 29.3333 12 28.7364 12 28V22.6667ZM21.3334 16C17.6515 16 14.6667 18.9848 14.6667 22.6667V26.6667H27.1112C27.6021 26.6667 28 26.2687 28 25.7778V22.6667C28 18.9848 25.0153 16 21.3334 16Z" fill="white"/>
<path d="M1.33337 24.6667C1.33337 20.6166 4.61662 17.3333 8.66671 17.3333C10.7681 17.3333 12.663 18.2172 14 19.6334L12.8843 22.6667C12.1353 21.09 10.5283 20 8.66671 20C6.08938 20 4.00004 22.0893 4.00004 24.6667V25.8462C4.00004 26.2993 4.3674 26.6667 4.82055 26.6667H13.1112V29.3333H4.82055C2.89464 29.3333 1.33337 27.7721 1.33337 25.8462V24.6667Z" fill="white"/>
<path fill-rule="evenodd" clip-rule="evenodd" d="M21.3334 12C22.8061 12 24 10.8061 24 9.33333C24 7.86057 22.8061 6.66667 21.3334 6.66667C19.8606 6.66667 18.6667 7.86057 18.6667 9.33333C18.6667 10.8061 19.8606 12 21.3334 12ZM21.3334 14.6667C24.2789 14.6667 26.6667 12.2789 26.6667 9.33333C26.6667 6.38781 24.2789 4 21.3334 4C18.3879 4 16 6.38781 16 9.33333C16 12.2789 18.3879 14.6667 21.3334 14.6667Z" fill="white"/>
<path fill-rule="evenodd" clip-rule="evenodd" d="M8.66671 16C9.77128 16 10.6667 15.1046 10.6667 14C10.6667 12.8954 9.77128 12 8.66671 12C7.56214 12 6.66671 12.8954 6.66671 14C6.66671 15.1046 7.56214 16 8.66671 16ZM8.66671 18.6667C11.244 18.6667 13.3334 16.5773 13.3334 14C13.3334 11.4227 11.244 9.33333 8.66671 9.33333C6.08938 9.33333 4.00004 11.4227 4.00004 14C4.00004 16.5773 6.08938 18.6667 8.66671 18.6667Z" fill="white"/>
</svg>
