<svg width="24" height="25" viewBox="0 0 24 25" fill="none" xmlns="http://www.w3.org/2000/svg">
<g clip-path="url(#clip0_1_428)">
<path d="M9 2C9 1.17157 9.67157 0.5 10.5 0.5H13.5C14.3284 0.5 15 1.17157 15 2C15 2.82843 14.3284 3.5 13.5 3.5H10.5C9.67157 3.5 9 2.82843 9 2Z" fill="#FF6231"/>
<path d="M17.0607 9.00182C16.4749 8.41604 16.4749 7.46629 17.0607 6.8805L18.7931 5.14809C19.3789 4.5623 20.3286 4.5623 20.9144 5.14809C21.5002 5.73388 21.5002 6.68362 20.9144 7.26941L19.182 9.00182C18.5962 9.58761 17.6464 9.58761 17.0607 9.00182Z" fill="#FF6231"/>
<path fill-rule="evenodd" clip-rule="evenodd" d="M12 22.5C16.9706 22.5 21 18.4706 21 13.5C21 8.52944 16.9706 4.5 12 4.5C7.02944 4.5 3 8.52944 3 13.5C3 18.4706 7.02944 22.5 12 22.5ZM13 9.5C13 8.94772 12.5523 8.5 12 8.5C11.4477 8.5 11 8.94772 11 9.5V13.5C11 14.0523 11.4477 14.5 12 14.5L16 14.5C16.5523 14.5 17 14.0523 17 13.5C17 12.9477 16.5523 12.5 16 12.5L13 12.5V9.5Z" fill="#FF6231"/>
</g>
<defs>
<clipPath id="clip0_1_428">
<rect width="24" height="24" fill="white" transform="translate(0 0.5)"/>
</clipPath>
</defs>
</svg>
