<svg width="32" height="32" viewBox="0 0 32 32" fill="none" xmlns="http://www.w3.org/2000/svg">
<path fill-rule="evenodd" clip-rule="evenodd" d="M15.0544 7.36951C12.6959 5.01096 8.87189 5.01096 6.51334 7.3695C4.15479 9.72805 4.15479 13.552 6.51334 15.9106L15.9972 25.3945L25.4811 15.9106C27.8397 13.552 27.8397 9.72806 25.4811 7.36951C23.1226 5.01096 19.2986 5.01096 16.94 7.36951C16.4193 7.89021 15.5751 7.89021 15.0544 7.36951ZM15.9972 4.66603C12.5872 2.11022 7.72877 2.38283 4.62772 5.48389C1.22777 8.88384 1.22777 14.3962 4.62772 17.7962L14.1116 27.2801C14.5008 27.6693 14.984 27.9146 15.4891 28.0124C16.3256 28.1744 17.2311 27.9318 17.8828 27.2801L27.3667 17.7962C30.7667 14.3962 30.7667 8.88384 27.3667 5.48389C24.2657 2.38284 19.4073 2.11022 15.9972 4.66603Z" fill="white"/>
</svg>
